<svg width="254" height="264" viewBox="0 0 254 264" fill="none"
  xmlns="http://www.w3.org/2000/svg">
  <path fill-rule="evenodd" clip-rule="evenodd" d="M100.426 0C187.099 0 254 73.6104 254 160.351C254 232.745 172.764 264 100.426 264C44.0878 264 0 216.733 0 160.351C0 86.4462 26.579 0 100.426 0Z" fill="url(#paint0_linear_203_5)"/>
  <path d="M106.056 189.48C91.1573 189.48 80.0573 185.78 72.756 178.38C65.5533 170.881 61.952 159.831 61.952 145.228V83.66H81.044V145.08C81.044 154.355 83.0173 161.36 86.964 166.096C91.0093 170.832 97.3733 173.2 106.056 173.2C114.344 173.2 120.56 170.832 124.704 166.096C128.947 161.36 131.068 154.355 131.068 145.08V83.66H149.864V145.228C149.864 159.831 146.164 170.881 138.764 178.38C131.463 185.78 120.56 189.48 106.056 189.48ZM172.099 188V83.66H191.191V188H172.099Z" fill="#FCFCFC"/>
  <defs>
    <linearGradient id="paint0_linear_203_5" x1="0" y1="132" x2="254" y2="132" gradientUnits="userSpaceOnUse">
      <stop stop-color="#1D7297"/>
      <stop offset="1" stop-color="#DEF993"/>
    </linearGradient>
  </defs>
</svg>
